<svg width="277" xmlns="http://www.w3.org/2000/svg" height="93" id="screenshot-60952814-348b-80d8-8004-64829a0ad33e" viewBox="0 0 277 93" xmlns:xlink="http://www.w3.org/1999/xlink" fill="none" version="1.1"><g id="shape-60952814-348b-80d8-8004-64829a0ad33e" rx="0" ry="0"><g id="shape-60952814-348b-80d8-8004-648239aaff55"><g class="fills" id="fills-60952814-348b-80d8-8004-648239aaff55"><rect rx="0" ry="0" x="0" y="0" transform="matrix(1.000000, 0.000000, 0.000000, 1.000000, 0.000000, 0.000000)" width="277" height="93" style="fill: rgb(41, 48, 54); fill-opacity: 1;"/></g></g><g id="shape-60952814-348b-80d8-8004-64820268a3c0" width="122" height="80" rx="0" ry="0" style="fill: rgb(0, 0, 0);"><g id="shape-60952814-348b-80d8-8004-648202691c3d"><g class="fills" id="fills-60952814-348b-80d8-8004-648202691c3d"><path d="M161.500,86.500L161.500,68.500L169.500,68.500L169.500,70.500L171.500,70.500L171.500,80.500L169.500,80.500L169.500,70.500L163.500,70.500L163.500,80.500L169.500,80.500L169.500,82.500L163.500,82.500L163.500,86.500ZM119.500,86.500L119.500,68.500L127.500,68.500L127.500,70.500L129.500,70.500L129.500,80.500L127.500,80.500L127.500,70.500L121.500,70.500L121.500,80.500L127.500,80.500L127.500,82.500L121.500,82.500L121.500,86.500ZM183.500,82.500L183.500,74.500L181.500,74.500L181.500,72.500L183.500,72.500L183.500,68.500L185.500,68.500L185.500,82.500ZM175.500,82.500L175.500,68.500L177.500,68.500L177.500,76.500L179.500,76.500L179.500,78.500L177.500,78.500L177.500,82.500ZM149.500,82.500L149.500,80.500L147.500,80.500L147.500,66.500L149.500,66.500L149.500,68.500L155.500,68.500L155.500,70.500L157.500,70.500L157.500,80.500L155.500,80.500L155.500,70.500L149.500,70.500L149.500,80.500L155.500,80.500L155.500,82.500ZM113.500,82.500L113.500,74.500L111.500,74.500L111.500,72.500L113.500,72.500L113.500,68.500L115.500,68.500L115.500,82.500ZM105.500,82.500L105.500,68.500L107.500,68.500L107.500,76.500L109.500,76.500L109.500,78.500L107.500,78.500L107.500,82.500ZM85.500,82.500L85.500,76.500L79.500,76.500L79.500,82.500L77.500,82.500L77.500,68.500L79.500,68.500L79.500,74.500L85.500,74.500L85.500,68.500L87.500,68.500L87.500,82.500ZM191.500,82.500L191.500,80.500L189.500,80.500L189.500,78.500L191.500,78.500L191.500,80.500L197.500,80.500L197.500,82.500ZM135.500,82.500L135.500,80.500L133.500,80.500L133.500,70.500L135.500,70.500L135.500,80.500L141.500,80.500L141.500,82.500ZM93.500,82.500L93.500,80.500L91.500,80.500L91.500,70.500L93.500,70.500L93.500,74.500L99.500,74.500L99.500,70.500L93.500,70.500L93.500,68.500L99.500,68.500L99.500,70.500L101.500,70.500L101.500,76.500L93.500,76.500L93.500,80.500L99.500,80.500L99.500,82.500ZM197.500,80.500L197.500,76.500L193.500,76.500L193.500,74.500L197.500,74.500L197.500,76.500L199.500,76.500L199.500,80.500ZM141.500,80.500L141.500,70.500L135.500,70.500L135.500,68.500L141.500,68.500L141.500,70.500L143.500,70.500L143.500,80.500ZM99.500,80.500L99.500,78.500L101.500,78.500L101.500,80.500ZM179.500,76.500L179.500,74.500L181.500,74.500L181.500,76.500ZM109.500,76.500L109.500,74.500L111.500,74.500L111.500,76.500ZM197.500,74.500L197.500,70.500L191.500,70.500L191.500,68.500L197.500,68.500L197.500,70.500L199.500,70.500L199.500,74.500ZM189.500,72.500L189.500,70.500L191.500,70.500L191.500,72.500ZM149.500,66.500L149.500,64.500L155.500,64.500L155.500,66.500ZM108.500,66.500L108.500,64.500L112.500,64.500L112.500,66.500Z" style="fill: rgb(209, 249, 255);"/></g></g><g id="shape-60952814-348b-80d8-8004-6482026951bd" rx="0" ry="0" style="fill: rgb(0, 0, 0);"><g id="shape-60952814-348b-80d8-8004-648202698bdc"><g class="fills" id="fills-60952814-348b-80d8-8004-648202698bdc"><path d="M167.500,43.500L167.500,41.500L169.500,41.500L169.500,43.500ZM169.500,41.500L169.500,39.500L171.500,39.500L171.500,41.500ZM171.500,39.500L171.500,37.500L173.500,37.500L173.500,39.500ZM173.500,37.500L173.500,35.500L175.500,35.500L175.500,37.500ZM175.500,35.500L175.500,33.500L177.500,33.500L177.500,35.500ZM177.500,33.500L177.500,31.500L179.500,31.500L179.500,33.500ZM179.500,31.500L179.500,29.500L181.500,29.500L181.500,31.500ZM181.500,29.500L181.500,27.500L183.500,27.500L183.500,29.500ZM183.500,27.500L183.500,25.500L185.500,25.500L185.500,27.500ZM181.500,25.500L181.500,23.500L183.500,23.500L183.500,25.500ZM179.500,23.500L179.500,21.500L181.500,21.500L181.500,23.500ZM177.500,21.500L177.500,19.500L179.500,19.500L179.500,21.500ZM175.500,19.500L175.500,17.500L177.500,17.500L177.500,19.500ZM173.500,17.500L173.500,15.500L175.500,15.500L175.500,17.500ZM171.500,15.500L171.500,13.500L173.500,13.500L173.500,15.500ZM169.500,13.500L169.500,11.500L171.500,11.500L171.500,13.500ZM167.500,11.500L167.500,9.500L169.500,9.500L169.500,11.500Z" style="fill: rgb(0, 220, 255);"/></g></g><g id="shape-60952814-348b-80d8-8004-64820269fbc6"><g class="fills" id="fills-60952814-348b-80d8-8004-64820269fbc6"><path d="M107.500,43.500L107.500,41.500L105.500,41.500L105.500,39.500L103.500,39.500L103.500,37.500L101.500,37.500L101.500,35.500L99.500,35.500L99.500,33.500L97.500,33.500L97.500,31.500L95.500,31.500L95.500,29.500L93.500,29.500L93.500,27.500L91.500,27.500L91.500,25.500L93.500,25.500L93.500,27.500L95.500,27.500L95.500,29.500L97.500,29.500L97.500,31.500L99.500,31.500L99.500,33.500L101.500,33.500L101.500,35.500L103.500,35.500L103.500,37.500L105.500,37.500L105.500,39.500L107.500,39.500L107.500,41.500L109.500,41.500L109.500,43.500ZM93.500,25.500L93.500,23.500L95.500,23.500L95.500,25.500ZM95.500,23.500L95.500,21.500L97.500,21.500L97.500,23.500ZM97.500,21.500L97.500,19.500L99.500,19.500L99.500,21.500ZM99.500,19.500L99.500,17.500L101.500,17.500L101.500,19.500ZM101.500,17.500L101.500,15.500L103.500,15.500L103.500,17.500ZM103.500,15.500L103.500,13.500L105.500,13.500L105.500,15.500ZM105.500,13.500L105.500,11.500L107.500,11.500L107.500,13.500ZM107.500,11.500L107.500,9.500L109.500,9.500L109.500,11.500Z" style="fill: rgb(0, 220, 255);"/></g></g><g id="shape-60952814-348b-80d8-8004-64820269fbc7" rx="0" ry="0" style="fill: rgb(0, 0, 0);"><g id="shape-60952814-348b-80d8-8004-6482026a0245"><g class="fills" id="fills-60952814-348b-80d8-8004-6482026a0245"><path d="M127.500,46.500L127.500,44.500L125.500,44.500L125.500,42.500L127.500,42.500L127.500,44.500L133.500,44.500L133.500,46.500ZM133.500,44.500L133.500,42.500L135.500,42.500L135.500,44.500ZM135.500,42.500L135.500,38.500L131.500,38.500L131.500,36.500L135.500,36.500L135.500,32.500L127.500,32.500L127.500,36.500L125.500,36.500L125.500,32.500L123.500,32.500L123.500,30.500L129.500,30.500L129.500,26.500L119.500,26.500L119.500,24.500L131.500,24.500L131.500,30.500L135.500,30.500L135.500,26.500L137.500,26.500L137.500,42.500ZM123.500,42.500L123.500,40.500L125.500,40.500L125.500,42.500ZM129.500,40.500L129.500,38.500L131.500,38.500L131.500,40.500ZM121.500,40.500L121.500,38.500L119.500,38.500L119.500,36.500L121.500,36.500L121.500,38.500L123.500,38.500L123.500,40.500ZM117.500,36.500L117.500,26.500L119.500,26.500L119.500,36.500ZM135.500,24.500L135.500,20.500L131.500,20.500L131.500,18.500L127.500,18.500L127.500,20.500L125.500,20.500L125.500,16.500L129.500,16.500L129.500,12.500L131.500,12.500L131.500,18.500L135.500,18.500L135.500,10.500L133.500,10.500L133.500,8.500L127.500,8.500L127.500,6.500L133.500,6.500L133.500,8.500L135.500,8.500L135.500,10.500L137.500,10.500L137.500,24.500ZM117.500,24.500L117.500,16.500L119.500,16.500L119.500,24.500ZM129.500,22.500L129.500,20.500L131.500,20.500L131.500,22.500ZM119.500,16.500L119.500,14.500L121.500,14.500L121.500,16.500ZM121.500,14.500L121.500,12.500L123.500,12.500L123.500,14.500ZM123.500,12.500L123.500,10.500L125.500,10.500L125.500,12.500ZM125.500,10.500L125.500,8.500L127.500,8.500L127.500,10.500Z" style="fill: rgb(209, 249, 255);"/></g></g><g id="shape-60952814-348b-80d8-8004-6482026a5b6b"><g class="fills" id="fills-60952814-348b-80d8-8004-6482026a5b6b"><path d="M143.500,46.500L143.500,44.500L141.500,44.500L141.500,42.500L139.500,42.500L139.500,24.500L143.500,24.500L143.500,26.500L141.500,26.500L141.500,28.500L145.500,28.500L145.500,24.500L147.500,24.500L147.500,28.500L151.500,28.500L151.500,32.500L153.500,32.500L153.500,34.500L149.500,34.500L149.500,30.500L141.500,30.500L141.500,34.500L145.500,34.500L145.500,38.500L147.500,38.500L147.500,40.500L143.500,40.500L143.500,36.500L141.500,36.500L141.500,42.500L143.500,42.500L143.500,44.500L149.500,44.500L149.500,46.500ZM149.500,44.500L149.500,42.500L151.500,42.500L151.500,44.500ZM151.500,42.500L151.500,40.500L153.500,40.500L153.500,42.500ZM153.500,40.500L153.500,38.500L155.500,38.500L155.500,40.500ZM155.500,38.500L155.500,36.500L157.500,36.500L157.500,38.500ZM157.500,36.500L157.500,26.500L149.500,26.500L149.500,24.500L157.500,24.500L157.500,26.500L159.500,26.500L159.500,36.500ZM157.500,24.500L157.500,16.500L155.500,16.500L155.500,14.500L157.500,14.500L157.500,16.500L159.500,16.500L159.500,24.500ZM145.500,22.500L145.500,20.500L141.500,20.500L141.500,22.500L139.500,22.500L139.500,10.500L141.500,10.500L141.500,18.500L145.500,18.500L145.500,16.500L151.500,16.500L151.500,20.500L149.500,20.500L149.500,18.500L147.500,18.500L147.500,22.500ZM153.500,14.500L153.500,12.500L155.500,12.500L155.500,14.500ZM145.500,14.500L145.500,12.500L147.500,12.500L147.500,14.500ZM151.500,12.500L151.500,10.500L153.500,10.500L153.500,12.500ZM149.500,10.500L149.500,8.500L151.500,8.500L151.500,10.500ZM141.500,10.500L141.500,8.500L143.500,8.500L143.500,10.500ZM143.500,8.500L143.500,6.500L149.500,6.500L149.500,8.500Z" style="fill: rgb(209, 249, 255);"/></g></g></g></g></g></g></svg>