<svg width="581" height="90" viewBox="0 0 581 90" fill="none" xmlns="http://www.w3.org/2000/svg">
<path d="M0 22.4C0 14.5593 0 10.6389 1.52591 7.64413C2.86814 5.00986 5.00986 2.86814 7.64413 1.52591C10.6389 0 14.5593 0 22.4 0H67.6C75.4407 0 79.3611 0 82.3559 1.52591C84.9901 2.86814 87.1319 5.00986 88.4741 7.64413C90 10.6389 90 14.5593 90 22.4V67.6C90 75.4407 90 79.3611 88.4741 82.3559C87.1319 84.9901 84.9901 87.1319 82.3559 88.4741C79.3611 90 75.4407 90 67.6 90H22.4C14.5593 90 10.6389 90 7.64413 88.4741C5.00986 87.1319 2.86814 84.9901 1.52591 82.3559C0 79.3611 0 75.4407 0 67.6V22.4Z" fill="#161B97"/>
<path d="M119.747 48.2924V68.2495H110V21.6939H119.747V40.2302H140.035V21.6939H149.782V68.2495H140.035V48.2924H119.747Z" fill="#161B97"/>
<path d="M202.138 44.7569C202.138 49.603 201.158 53.8433 199.198 57.4779C197.259 61.0905 194.517 63.899 190.97 65.9035C187.446 67.908 183.305 68.9103 178.547 68.9103C173.679 68.9103 169.493 67.9411 165.991 66.0026C162.489 64.0422 159.801 61.2557 157.929 57.6431C156.056 54.0306 155.12 49.7352 155.12 44.7569C155.12 39.7786 156.045 35.5163 157.896 31.9698C159.768 28.4233 162.456 25.7139 165.958 23.8416C169.482 21.9472 173.701 21 178.613 21C183.547 21 187.765 21.9582 191.268 23.8746C194.77 25.769 197.458 28.4894 199.33 32.0359C201.202 35.5824 202.138 39.8227 202.138 44.7569ZM192.193 44.7569C192.193 39.7346 191.003 35.8026 188.624 32.9611C186.245 30.0975 182.908 28.6656 178.613 28.6656C174.251 28.6656 170.881 30.0864 168.502 32.928C166.123 35.7476 164.934 39.6905 164.934 44.7569C164.934 48.1492 165.484 51.0789 166.586 53.546C167.687 56.0131 169.251 57.9185 171.278 59.2622C173.326 60.5838 175.749 61.2447 178.547 61.2447C182.908 61.2447 186.267 59.8129 188.624 56.9492C191.003 54.0856 192.193 50.0215 192.193 44.7569Z" fill="#161B97"/>
<path d="M245.805 36.4304C245.805 39.4482 245.111 42.1246 243.723 44.4595C242.358 46.7724 240.408 48.5897 237.875 49.9114C235.342 51.211 232.324 51.8608 228.822 51.8608H217.257V68.2495H207.51V21.6939H228.425C233.998 21.6939 238.282 22.9825 241.278 25.5597C244.296 28.115 245.805 31.7385 245.805 36.4304ZM235.992 36.5956C235.992 31.7055 233.106 29.2604 227.335 29.2604H217.257V44.3604H227.599C230.286 44.3604 232.357 43.6996 233.811 42.3779C235.265 41.0342 235.992 39.1068 235.992 36.5956Z" fill="#161B97"/>
<path d="M258.346 40.032V68.2495H249.689V21.6939H262.741L271.067 47.7306C271.442 49.1845 271.827 50.6493 272.224 52.1252C272.62 53.579 273.006 55.0328 273.38 56.4867C273.622 55.6496 273.854 54.8236 274.074 54.0085C274.294 53.1715 274.514 52.3344 274.735 51.4974C274.977 50.6603 275.219 49.8343 275.462 49.0193L284.019 21.6939H297.005V68.2495H288.348V40.032C288.348 39.3932 288.37 38.1155 288.414 36.1991C288.48 34.2607 288.568 32.157 288.678 29.8882C287.907 32.8399 287.224 35.3511 286.63 37.4217C286.057 39.4923 285.583 41.1113 285.209 42.2788L276.816 68.2495H269.878L261.485 42.2788L257.95 29.8882C258.082 32.4434 258.181 34.5691 258.247 36.2652C258.313 37.9393 258.346 39.1949 258.346 40.032Z" fill="#161B97"/>
<path d="M349.295 44.7569C349.295 49.603 348.315 53.8433 346.354 57.4779C344.416 61.0905 341.674 63.899 338.127 65.9035C334.603 67.908 330.461 68.9103 325.703 68.9103C320.835 68.9103 316.65 67.9411 313.148 66.0026C309.645 64.0422 306.958 61.2557 305.085 57.6431C303.213 54.0306 302.277 49.7352 302.277 44.7569C302.277 39.7786 303.202 35.5163 305.052 31.9698C306.925 28.4233 309.612 25.7139 313.115 23.8416C316.639 21.9472 320.857 21 325.77 21C330.704 21 334.922 21.9582 338.424 23.8746C341.927 25.769 344.614 28.4894 346.487 32.0359C348.359 35.5824 349.295 39.8227 349.295 44.7569ZM339.35 44.7569C339.35 39.7346 338.16 35.8026 335.781 32.9611C333.402 30.0975 330.065 28.6656 325.77 28.6656C321.408 28.6656 318.038 30.0864 315.659 32.928C313.28 35.7476 312.09 39.6905 312.09 44.7569C312.09 48.1492 312.641 51.0789 313.742 53.546C314.844 56.0131 316.408 57.9185 318.434 59.2622C320.483 60.5838 322.906 61.2447 325.703 61.2447C330.065 61.2447 333.424 59.8129 335.781 56.9492C338.16 54.0856 339.35 50.0215 339.35 44.7569Z" fill="#161B97"/>
<path d="M376.408 61.2447C382.311 61.2447 386.397 58.2929 388.666 52.3895L397.158 55.5945C395.33 60.0882 392.642 63.4364 389.096 65.6392C385.571 67.8199 381.342 68.9103 376.408 68.9103C371.429 68.9103 367.189 67.9631 363.687 66.0687C360.184 64.1523 357.508 61.3878 355.658 57.7753C353.829 54.1627 352.915 49.8233 352.915 44.7569C352.915 39.6465 353.796 35.329 355.558 31.8046C357.321 28.2802 359.92 25.6038 363.356 23.7755C366.793 21.9252 371 21 375.978 21C381.441 21 385.891 22.1014 389.327 24.3042C392.763 26.4849 395.175 29.701 396.563 33.9523L387.972 36.2983C387.245 33.9633 385.814 32.113 383.677 30.7473C381.562 29.3595 379.062 28.6656 376.176 28.6656C371.771 28.6656 368.423 30.0314 366.132 32.7628C363.863 35.4942 362.729 39.4923 362.729 44.7569C362.729 48.3254 363.246 51.3322 364.281 53.7773C365.339 56.2223 366.881 58.0837 368.907 59.3613C370.956 60.6169 373.456 61.2447 376.408 61.2447Z" fill="#161B97"/>
<path d="M452.422 43.9969C452.422 47.5434 451.651 50.6824 450.109 53.4138C448.567 56.1452 446.331 58.2709 443.402 59.7908C440.472 61.2887 437.035 62.0377 433.093 62.0377H430.482V68.6129H421.297V62.0377H418.686C414.765 62.0377 411.329 61.2777 408.377 59.7578C405.448 58.2599 403.212 56.1452 401.67 53.4138C400.128 50.6603 399.357 47.5214 399.357 43.9969C399.357 38.468 401.064 34.1836 404.479 31.1438C407.893 28.1039 412.761 26.584 419.083 26.584H421.297V21.3635H430.482V26.584H432.696C438.996 26.584 443.853 28.1039 447.267 31.1438C450.704 34.1836 452.422 38.468 452.422 43.9969ZM442.609 44.1291C442.609 40.7809 441.738 38.1706 439.998 36.2983C438.258 34.4259 435.571 33.4897 431.936 33.4897H430.482V55.132H432.167C435.516 55.132 438.093 54.1848 439.899 52.2904C441.705 50.396 442.609 47.6756 442.609 44.1291ZM409.17 44.1291C409.17 47.6535 410.063 50.374 411.847 52.2904C413.653 54.1848 416.241 55.132 419.612 55.132H421.297V33.4897H419.843C416.208 33.4897 413.521 34.4259 411.781 36.2983C410.041 38.1706 409.17 40.7809 409.17 44.1291Z" fill="#161B97"/>
<path d="M495.229 60.716V68.2495H457.264V21.6939H493.875V29.2274H467.012V40.9241H491.859V48.4576H467.012V60.716H495.229Z" fill="#161B97"/>
<path d="M538.664 36.4304C538.664 39.4482 537.971 42.1246 536.583 44.4595C535.217 46.7724 533.268 48.5897 530.734 49.9114C528.201 51.211 525.183 51.8608 521.681 51.8608H510.116V68.2495H500.369V21.6939H521.285C526.858 21.6939 531.142 22.9825 534.138 25.5597C537.155 28.115 538.664 31.7385 538.664 36.4304ZM528.851 36.5956C528.851 31.7055 525.965 29.2604 520.194 29.2604H510.116V44.3604H520.458C523.146 44.3604 525.216 43.6996 526.67 42.3779C528.124 41.0342 528.851 39.1068 528.851 36.5956Z" fill="#161B97"/>
<path d="M548.496 56.3545L544.366 68.2495H534.619L551.602 21.6939H563.101L580.018 68.2495H570.37L566.24 56.3545H548.496ZM557.351 28.8639C557.131 29.745 556.823 30.8023 556.426 32.0359C556.03 33.2694 555.743 34.1395 555.567 34.6462L550.677 49.0193H564.059L559.037 34.3488C558.728 33.4457 558.442 32.5315 558.177 31.6063C557.913 30.6812 557.638 29.767 557.351 28.8639Z" fill="#161B97"/>
<path d="M34.4619 20C34.8419 20.0002 35.1493 20.3075 35.1494 20.6875V35.4658C35.1493 35.8459 34.8419 36.1531 34.4619 36.1533H33.333C32.5887 36.1533 32.2971 37.1206 32.916 37.5332L42.1035 43.6572C42.5121 43.9283 42.5121 44.5317 42.1035 44.8027L32.916 50.9268L32.9199 50.9316C32.2975 51.3444 32.5927 52.3105 33.3369 52.3105H34.4658C34.8459 52.3107 35.1531 52.618 35.1533 52.998V68.8525C35.1532 69.2326 34.8459 69.5399 34.4658 69.54H19.6875C19.3074 69.5399 19.0001 69.2326 19 68.8525V20.6875C19.0001 20.3074 19.3074 20.0001 19.6875 20H34.4619Z" fill="white"/>
<path d="M70.8516 20C71.2318 20 71.5399 20.3073 71.54 20.6875V68.8486C71.5399 69.2287 71.2317 69.5361 70.8516 69.5361H56.0742C55.6941 69.5361 55.3869 69.2287 55.3867 68.8486V52.9941C55.3868 52.614 55.694 52.3066 56.0742 52.3066H57.2031C57.9472 52.3064 58.238 51.3393 57.6191 50.9268L48.4326 44.8027C48.024 44.5317 48.024 43.9283 48.4326 43.6572L57.6191 37.5332C58.242 37.1206 57.9472 36.1536 57.2031 36.1533H56.0742C55.694 36.1533 55.3868 35.846 55.3867 35.4658V20.6875C55.3868 20.3073 55.694 20 56.0742 20H70.8516Z" fill="white"/>
</svg>
