<svg width="300" height="60" viewBox="0 0 300 60" fill="none" xmlns="http://www.w3.org/2000/svg">
<path d="M68.5254 26.2901V0.354588H74.0088V11.0555H85.1404V0.354588H90.6111V26.2901H85.1404V15.5765H74.0088V26.2901H68.5254Z" fill="#303434"/>
<path d="M118.223 13.3224C118.223 16.1506 117.686 18.5568 116.614 20.5408C115.55 22.5248 114.098 24.0402 112.258 25.0871C110.426 26.1255 108.366 26.6447 106.078 26.6447C103.773 26.6447 101.705 26.1213 99.8726 25.0744C98.0406 24.0275 96.5927 22.5121 95.5289 20.5281C94.4652 18.5441 93.9333 16.1422 93.9333 13.3224C93.9333 10.4941 94.4652 8.08798 95.5289 6.10397C96.5927 4.11997 98.0406 2.60875 99.8726 1.57032C101.705 0.523439 103.773 0 106.078 0C108.366 0 110.426 0.523439 112.258 1.57032C114.098 2.60875 115.55 4.11997 116.614 6.10397C117.686 8.08798 118.223 10.4941 118.223 13.3224ZM112.663 13.3224C112.663 11.4903 112.389 9.94534 111.84 8.6874C111.3 7.42946 110.536 6.47545 109.548 5.82537C108.56 5.17529 107.403 4.85025 106.078 4.85025C104.752 4.85025 103.596 5.17529 102.608 5.82537C101.62 6.47545 100.852 7.42946 100.303 8.6874C99.7629 9.94534 99.4927 11.4903 99.4927 13.3224C99.4927 15.1544 99.7629 16.6994 100.303 17.9573C100.852 19.2153 101.62 20.1693 102.608 20.8194C103.596 21.4694 104.752 21.7945 106.078 21.7945C107.403 21.7945 108.56 21.4694 109.548 20.8194C110.536 20.1693 111.3 19.2153 111.84 17.9573C112.389 16.6994 112.663 15.1544 112.663 13.3224Z" fill="#303434"/>
<path d="M121.542 26.2901V0.354588H131.926C133.834 0.354588 135.425 0.637414 136.7 1.20307C137.975 1.76872 138.933 2.55388 139.575 3.55854C140.216 4.55476 140.537 5.70295 140.537 7.00311C140.537 8.01621 140.335 8.9069 139.929 9.67518C139.524 10.435 138.967 11.0598 138.258 11.5494C137.557 12.0307 136.755 12.3726 135.852 12.5752V12.8285C136.839 12.8707 137.764 13.1493 138.625 13.6643C139.495 14.1793 140.2 14.9011 140.74 15.8298C141.28 16.75 141.55 17.8476 141.55 19.1224C141.55 20.4985 141.208 21.7269 140.525 22.8076C139.849 23.8798 138.849 24.7283 137.523 25.353C136.198 25.9778 134.564 26.2901 132.622 26.2901H121.542ZM127.025 21.8071H131.495C133.023 21.8071 134.138 21.5159 134.839 20.9333C135.539 20.3424 135.89 19.5572 135.89 18.5779C135.89 17.8602 135.717 17.227 135.37 16.6783C135.024 16.1295 134.53 15.6989 133.889 15.3866C133.256 15.0742 132.5 14.918 131.622 14.918H127.025V21.8071ZM127.025 11.2075H131.09C131.841 11.2075 132.508 11.0766 133.091 10.8149C133.682 10.5448 134.146 10.1648 134.484 9.67518C134.83 9.18551 135.003 8.59875 135.003 7.9149C135.003 6.97778 134.67 6.22217 134.003 5.64807C133.344 5.07398 132.407 4.78693 131.191 4.78693H127.025V11.2075Z" fill="#303434"/>
<path d="M148.846 26.2901H142.97L151.923 0.354588H158.99L167.93 26.2901H162.054L155.558 6.28127H155.355L148.846 26.2901ZM148.479 16.0957H162.358V20.3761H148.479V16.0957Z" fill="#303434"/>
<path d="M190.216 26.2901H184.746V4.83759H181.048C179.993 4.83759 179.115 4.99378 178.414 5.30615C177.721 5.61008 177.202 6.05754 176.856 6.64852C176.51 7.2395 176.337 7.96556 176.337 8.8267C176.337 9.6794 176.51 10.3928 176.856 10.9669C177.202 11.541 177.721 11.9716 178.414 12.2586C179.106 12.5456 179.976 12.6892 181.023 12.6892H186.975V17.0962H180.136C178.152 17.0962 176.455 16.7669 175.045 16.1084C173.635 15.4499 172.559 14.5043 171.816 13.2717C171.073 12.0307 170.702 10.549 170.702 8.8267C170.702 7.11286 171.065 5.62275 171.791 4.35636C172.525 3.08154 173.585 2.09798 174.969 1.40569C176.362 0.704954 178.038 0.354588 179.997 0.354588H190.216V26.2901ZM176.223 14.4874H182.137L175.83 26.2901H169.777L176.223 14.4874Z" fill="#303434"/>
<path d="M90.5731 32.4498V58.3854H85.153V36.9075H74.6674V58.3854H69.2472V32.4498H90.5731Z" fill="#303434"/>
<path d="M93.6452 58.3854V53.9784L94.3797 53.915C95.3253 53.8391 96.0893 53.4803 96.6718 52.8386C97.2544 52.1885 97.6892 51.1543 97.9762 49.736C98.2717 48.3092 98.4617 46.3927 98.5461 43.9866L98.9767 32.4498H116.579V58.3854H111.248V36.8442H104.068L103.662 45.8735C103.527 48.7777 103.181 51.1501 102.624 52.9906C102.075 54.8311 101.197 56.1903 99.9898 57.0683C98.7909 57.9464 97.1488 58.3854 95.0635 58.3854H93.6452Z" fill="#303434"/>
<path d="M124.828 58.3854H118.952L127.905 32.4498H134.972L143.912 58.3854H138.036L131.54 38.3765H131.337L124.828 58.3854ZM124.461 48.191H138.34V52.4714H124.461V48.191Z" fill="#303434"/>
<path d="M142.134 36.9708V32.4498H163.435V36.9708H155.494V58.3854H150.074V36.9708H142.134Z" fill="#303434"/>
<path d="M175.273 35.2359H181.073C183.15 35.2359 184.991 35.6749 186.595 36.5529C188.207 37.4309 189.469 38.6678 190.381 40.2634C191.301 41.8506 191.761 43.7164 191.761 45.8608C191.761 47.9377 191.301 49.7486 190.381 51.2936C189.469 52.8386 188.207 54.0417 186.595 54.9028C184.991 55.7555 183.15 56.1819 181.073 56.1819H175.273C173.188 56.1819 171.339 55.7598 169.726 54.9155C168.114 54.0628 166.847 52.864 165.927 51.319C165.015 49.774 164.56 47.9504 164.56 45.8482C164.56 43.7038 165.02 41.838 165.94 40.2508C166.869 38.6551 168.139 37.4225 169.752 36.5529C171.364 35.6749 173.205 35.2359 175.273 35.2359ZM175.273 39.8202C174.159 39.8202 173.175 40.0439 172.322 40.4914C171.478 40.9304 170.82 41.5974 170.347 42.4923C169.874 43.3872 169.638 44.5058 169.638 45.8482C169.638 47.1315 169.878 48.1994 170.36 49.0521C170.849 49.9048 171.516 50.5422 172.36 50.9644C173.205 51.3865 174.176 51.5976 175.273 51.5976H181.111C182.217 51.5976 183.184 51.3823 184.011 50.9517C184.847 50.5211 185.493 49.8795 185.949 49.0268C186.413 48.1741 186.645 47.1188 186.645 45.8608C186.645 44.5185 186.413 43.3998 185.949 42.5049C185.493 41.61 184.847 40.9388 184.011 40.4914C183.184 40.0439 182.217 39.8202 181.111 39.8202H175.273ZM180.769 31.9939V59.4492H175.564V31.9939H180.769Z" fill="#303434"/>
<path d="M218.892 45.4176C218.892 48.2459 218.356 50.652 217.283 52.636C216.22 54.62 214.767 56.1354 212.927 57.1823C211.095 58.2208 209.035 58.74 206.747 58.74C204.442 58.74 202.374 58.2165 200.542 57.1697C198.71 56.1228 197.262 54.6073 196.198 52.6233C195.134 50.6393 194.602 48.2374 194.602 45.4176C194.602 42.5894 195.134 40.1832 196.198 38.1992C197.262 36.2152 198.71 34.704 200.542 33.6656C202.374 32.6187 204.442 32.0952 206.747 32.0952C209.035 32.0952 211.095 32.6187 212.927 33.6656C214.767 34.704 216.22 36.2152 217.283 38.1992C218.356 40.1832 218.892 42.5894 218.892 45.4176ZM213.332 45.4176C213.332 43.5856 213.058 42.0406 212.509 40.7826C211.969 39.5247 211.205 38.5707 210.217 37.9206C209.229 37.2705 208.073 36.9455 206.747 36.9455C205.422 36.9455 204.265 37.2705 203.277 37.9206C202.289 38.5707 201.521 39.5247 200.972 40.7826C200.432 42.0406 200.162 43.5856 200.162 45.4176C200.162 47.2496 200.432 48.7946 200.972 50.0526C201.521 51.3105 202.289 52.2645 203.277 52.9146C204.265 53.5647 205.422 53.8897 206.747 53.8897C208.073 53.8897 209.229 53.5647 210.217 52.9146C211.205 52.2645 211.969 51.3105 212.509 50.0526C213.058 48.7946 213.332 47.2496 213.332 45.4176Z" fill="#303434"/>
<path d="M222.211 58.3854V32.4498H232.443C234.41 32.4498 236.086 32.8255 237.471 33.5769C238.855 34.3199 239.91 35.3541 240.637 36.6796C241.371 37.9966 241.738 39.5163 241.738 41.2385C241.738 42.9608 241.367 44.4805 240.624 45.7975C239.881 47.1146 238.804 48.1403 237.395 48.8748C235.993 49.6093 234.296 49.9766 232.304 49.9766H225.782V45.5822H231.417C232.473 45.5822 233.342 45.4007 234.026 45.0377C234.718 44.6662 235.233 44.1554 235.571 43.5054C235.917 42.8468 236.09 42.0912 236.09 41.2385C236.09 40.3774 235.917 39.626 235.571 38.9844C235.233 38.3343 234.718 37.832 234.026 37.4774C233.334 37.1143 232.456 36.9328 231.392 36.9328H227.694V58.3854H222.211Z" fill="#303434"/>
<path d="M244.557 32.4498H251.32L258.462 49.8753H258.766L265.908 32.4498H272.671V58.3854H267.352V41.5045H267.137L260.425 58.2588H256.803L250.091 41.4412H249.876V58.3854H244.557V32.4498Z" fill="#303434"/>
<path d="M280.916 58.3854H275.04L283.993 32.4498H291.06L300 58.3854H294.124L287.628 38.3765H287.425L280.916 58.3854ZM280.549 48.191H294.428V52.4714H280.549V48.191Z" fill="#303434"/>
<path d="M28.7961 16.7433H0C0 7.88239 7.18305 0.699341 16.044 0.699341H28.7961V16.7433Z" fill="#710FD8"/>
<path d="M57.5832 16.7433H33.0938C33.0938 7.88239 40.2768 0.699341 49.1377 0.699341H57.5912V16.7433H57.5832Z" fill="#25D838"/>
<path d="M41.5472 37.4773H33.0938V21.4333H57.5832C57.5832 30.2943 50.4002 37.4773 41.5472 37.4773Z" fill="#25D838"/>
<path d="M41.5492 58.2034H20.4795V42.1594H57.5852C57.5852 51.0284 50.4022 58.2034 41.5492 58.2034Z" fill="#710FD8"/>
<path d="M28.7961 21.4333H0V32.7393V37.4694V42.9266C0 51.364 6.83947 58.2035 15.277 58.2035H16.044V37.4694H28.7961V21.4333V21.4333Z" fill="#710FD8"/>
</svg>
